<svg id="圖層_1" data-name="圖層 1" xmlns="http://www.w3.org/2000/svg" viewBox="0 0 325 88"><defs><style>.cls-1{fill:#916134;stroke:#916134;stroke-miterlimit:10;stroke-width:3px;}</style></defs><title>logo</title><path class="cls-1" d="M18.34,82.88l-1.29-4.75q-3-10-4.42-16.93-.87-3.77-2.16-10.46Q9,43,7.67,38.12l-1.08.65-1.4.65L5.4,80.94v1.62c0,1.43-.65,2.15-1.94,2.15a1.88,1.88,0,0,1-1.4-.54,1.74,1.74,0,0,1-.54-1.29V81.26l.21-21.78L2,49q.44-18.89.43-32.14V3c0-.64.65-1,1.94-1A9.76,9.76,0,0,1,9.55,3.5a10.72,10.72,0,0,1,3.83,4.1,23.52,23.52,0,0,1,2.91,11.54,31.44,31.44,0,0,1-2.15,10.79q-.64,1.61-1.62,3.72a10.35,10.35,0,0,1-1.73,2.85q2.27,8.31,6.58,25.57l5.07,19.41a4.34,4.34,0,0,1,.11,1.18,3.53,3.53,0,0,1-.38,1.68A1.22,1.22,0,0,1,21,85,2.55,2.55,0,0,1,18.34,82.88ZM8,33.81a21.36,21.36,0,0,0,2.91-3.45,17.73,17.73,0,0,0,1.3-4.53,32,32,0,0,0,.54-5.4,29.07,29.07,0,0,0-1.52-9A10.59,10.59,0,0,0,9,7,4.43,4.43,0,0,0,5.62,5.34H5.4a.44.44,0,0,1-.32.1V35.86C5.65,35.86,6.62,35.18,8,33.81Z"/><path class="cls-1" d="M31.61,46.32V42.54q0-30.09,7.76-30.09a5,5,0,0,1,1.51.33,30,30,0,0,0,6.8,1.51q2,.44,4.1,4.2a31.31,31.31,0,0,1,3.39,10.25,73.83,73.83,0,0,1,1.14,13.05l-.22.54q0,3.56.11,6.36l.11,6.47q0,5.51-.44,9.92a58.32,58.32,0,0,1-2.15,11.54,22.38,22.38,0,0,1-2.21,4.86,11.58,11.58,0,0,1-3.08,3.23,6.76,6.76,0,0,1-4.2,1.3Q31.6,86,31.61,46.32ZM50.05,77a48.51,48.51,0,0,0,2.48-12.3Q53,58.19,53,54.3q0-4.3-.65-12.73-.53-9.37-.53-12.72L51.34,28l.22-.54a13.09,13.09,0,0,0-2.64-8.19A7.87,7.87,0,0,0,42.5,15.8c-3.31,0-5.28,1.58-5.93,4.74-.15,1.08-.29,2.63-.43,4.64a59.71,59.71,0,0,1-.65,10.89c0,1.08-.11,2.77-.32,5.07L35,46.21c0,1.58,0,3,.11,4.21l.11,4.31A89.93,89.93,0,0,0,36,66.38a70.06,70.06,0,0,0,1.51,8.2A17.87,17.87,0,0,0,40,80.29q1.62,2.59,3.77,2.59Q48,82.88,50.05,77Z"/><path class="cls-1" d="M70.43,82.88a15.79,15.79,0,0,0,.22-3.56q0-9.91.32-29.44t.33-28L71.51,18l.33-3.23a.67.67,0,0,1,.75-.76,5.1,5.1,0,0,1,1.51.33l.32.1c0,1.59,0,3-.1,4.32v16q.11,5.17.1,11.76a16.39,16.39,0,0,0-.1,2.37l-.11,2.26c-.07,1.44-.11,2.92-.11,4.43s0,3.16.11,4.53l.11,4.63-.33.87.11-.11a.64.64,0,0,1-.11.43v.43a3.26,3.26,0,0,0,.33,1.51L74,78.13v.65a11.32,11.32,0,0,0,.11,2.16.48.48,0,0,0,.54.54l5.61.21c1.65,0,2.78,0,3.4.06l1.13,0h.32a1.52,1.52,0,0,1,1.08.59,1.84,1.84,0,0,1,.54,1.25c0,.86-.58,1.33-1.73,1.4s-4.2-.11-8.95-.11l.22.11a19,19,0,0,0-2.05.1,7.78,7.78,0,0,1-1.94.22C71.26,85.36,70.65,84.53,70.43,82.88Z"/><path class="cls-1" d="M97.29,82.88a16.75,16.75,0,0,0,.21-3.56q0-9.91.33-29.44t.32-28L98.37,18l.32-3.23a.67.67,0,0,1,.75-.76,5,5,0,0,1,1.51.33l.33.1c0,1.59,0,3-.11,4.32v16q.1,5.17.11,11.76a15.86,15.86,0,0,0-.11,2.37l-.11,2.26C101,52.5,101,54,101,55.49s0,3.16.11,4.53l.11,4.63-.32.87.1-.11a.64.64,0,0,1-.1.43v.43a3.26,3.26,0,0,0,.32,1.51l-.32,10.35v.65a11.76,11.76,0,0,0,.1,2.16.48.48,0,0,0,.54.54l5.61.21c1.65,0,2.79,0,3.4.06l1.13,0H112a1.52,1.52,0,0,1,1.08.59,1.84,1.84,0,0,1,.54,1.25c0,.86-.57,1.33-1.72,1.4s-4.21-.11-8.95-.11l.21.11a19.15,19.15,0,0,0-2,.1,7.67,7.67,0,0,1-1.94.22C98.11,85.36,97.5,84.53,97.29,82.88Z"/><path class="cls-1" d="M176.31,84.48c0,1-1.35,1.44-4,1.44a9,9,0,0,1-2.92-.54,11.48,11.48,0,0,1-2.65-1.26,19.64,19.64,0,0,1-2.51-1.79A25.37,25.37,0,0,1,159,85.24a14.48,14.48,0,0,1-5,.77,9,9,0,0,1-5.75-2.16,14.19,14.19,0,0,1-4.13-5.38,14.62,14.62,0,0,1-1.52-6.2,35.1,35.1,0,0,1,.54-6.73l.45-2.78a10.45,10.45,0,0,1,.8-2.69c.18-.54.35-1,.5-1.39a6.46,6.46,0,0,0,.31-1L146.33,55l1.25-2.42q.18-.45.54-1.17l.9-1.8,1.53-3c0-1.43-.09-3.53-.27-6.28-.24-2.45-.36-4.55-.36-6.28V26.59A7.79,7.79,0,0,1,151.18,22a2,2,0,0,1,1.7-1.08,8.31,8.31,0,0,1,4.44,1.44c1.53,1,2.29,2,2.29,3.14s0,1.91-.09,2.69l-.18,2.69.09,1.08-2,5.84a48.35,48.35,0,0,1-2.34,5.47c-.06.12-.39.6-1,1.44A6.07,6.07,0,0,0,152.7,48a47.72,47.72,0,0,0,1.8,10,115.49,115.49,0,0,0,4.3,13.56c1.86,4.48,3.42,6.91,4.67,7.27q3.42-6.73,3.41-17.42a2.46,2.46,0,0,0-.18-1.07c-.18-.3-.36-.39-.53-.27a1.42,1.42,0,0,1-1.35-.63v-.18l-.09-.54.18-.45c1.13,0,2.9-.12,5.29-.36a20,20,0,0,0,4.4-.72,2.19,2.19,0,0,1,1.08.45,1.11,1.11,0,0,1,.45.9c0,.42-.47.76-1.39,1a10.73,10.73,0,0,1-3,.41h-1.08a5.55,5.55,0,0,0-1.07-.09H169a67.14,67.14,0,0,1-.81,11.67,32.3,32.3,0,0,1-3,8.79,9,9,0,0,0,7,3.59,13.16,13.16,0,0,0,1.62-.09c.95-.12,1.52-.18,1.7-.18Zm-16.79-1.3c1.86-.75,2.81-1.57,2.88-2.47a9,9,0,0,0-1.8-2.06,25,25,0,0,1-5-8.44,70,70,0,0,1-3.55-11.85l-.45-3.59a25.26,25.26,0,0,0-.71-4.13,29.37,29.37,0,0,0-4.72,9.25,35.7,35.7,0,0,0-1.66,10.77,18.22,18.22,0,0,0,2.34,9.15,8.68,8.68,0,0,0,7.81,4.49A13.21,13.21,0,0,0,159.52,83.18Zm-6.64-58.75a3.89,3.89,0,0,0-.9,2l.09,11.13.18.45a6.21,6.21,0,0,0-.18,1.52q0,.36.18,2a18,18,0,0,1,.09,2q1.53-1.35,3.41-6.82a28.05,28.05,0,0,0,1.89-8.08q0-5.39-3.32-5.38C154,23.18,153.48,23.59,152.88,24.43Z"/><path class="cls-1" d="M216.17,84a3.5,3.5,0,0,1-.54-2V62.82l-.21-17.26q-.33-11.54-.33-17.25l.11-3.13v-7q0-11.65-.21-11.65H202.8a2.86,2.86,0,0,1-1.56-.43,1.33,1.33,0,0,1-.7-1.19,1.64,1.64,0,0,1,.32-1.18,3.49,3.49,0,0,1,1.72-.54,21.69,21.69,0,0,1,4.32-.32h10.78l11.87-.11a2.74,2.74,0,0,1,1.78.43,1.8,1.8,0,0,1,.48,1.4c0,1.08-.68,1.62-2.05,1.62h-9.6l-1,.11.11,6.25V73.71l.11,8v.22a8.31,8.31,0,0,1-.11,1.45,1.62,1.62,0,0,1-.43.92,1.17,1.17,0,0,1-1.08.54A1.82,1.82,0,0,1,216.17,84Z"/><path class="cls-1" d="M257.48,85.14l-.43-.37a3.55,3.55,0,0,1-.65-2c-.65-5.25-1-8.52-1.19-9.81l-.54-4.32a24.39,24.39,0,0,0-5.39-.54l-3.88-.21a33,33,0,0,0-3.77-.32c-.44,0-.69.18-.76.53s0,.33-.11.33l-.21,2.15c-.08,1.3-.47,3.89-1.19,7.77a19.73,19.73,0,0,1-1.29,4.53q-.87,1.83-1.62,1.83a2.35,2.35,0,0,1-1.4-.59,1.61,1.61,0,0,1-.76-1.24l.11-.32.11-.33q1.94-7.65,3.23-15.2l1.3-6.69,1.29-8.2L241.52,45c.36-1.94,1-5.06,1.94-9.38,1-4.89,1.62-8.23,1.83-10,.07-.21.22-1.54.43-4q.43-4.1.76-6a10.29,10.29,0,0,1,.64-3.23h.76a2.48,2.48,0,0,0,.75.1,2.65,2.65,0,0,0,2-.64,2.11,2.11,0,0,1,1.35.48,1.45,1.45,0,0,1,.59,1.13,107.79,107.79,0,0,0,.75,11.87c.29,2.3.5,4.2.65,5.71q1.19,13.92,6,52.2v.33a1.79,1.79,0,0,1-.86,1.61Zm-3.34-19.41Q253.06,50.21,250,19.9l-5.83,28.79q-2.47,12.41-2.48,15.64c0,.36,1.37.68,4.1,1a69.26,69.26,0,0,0,7.23.43Z"/><path class="cls-1" d="M288.11,85.47c-.87-.94-1.8-3.42-2.81-7.44s-1.94-8.56-2.8-13.59A102.46,102.46,0,0,0,280,52.25q-1.29-5.39-2.48-5.39h-.33c-1.58,0-2.37.5-2.37,1.51q0,7.76.86,23.62.44,9.7,1,11.32l-.86,1.83H274.3l-.86-.86q-1.72-49.83-1.73-67.94a9.46,9.46,0,0,1,.17-1.95,3.14,3.14,0,0,1,.7-1.4,1.59,1.59,0,0,1,1.51-.75,13.71,13.71,0,0,1,8.84,2.69q3.35,2.7,3.34,7.77v7.87a16.34,16.34,0,0,1-1.34,5.5,53,53,0,0,1-3,6.37l-1.4,2.69q1.19,5.5,4.69,19.79t3.83,15.16a1.82,1.82,0,0,1,.27.54,9,9,0,0,0,.7,1.29,6.06,6.06,0,0,1,.75,2.59c0,1-.39,1.51-1.18,1.51Zm-9.06-43.36a15.78,15.78,0,0,0,2.59-5.28,44.35,44.35,0,0,0,1.72-10.46,25.61,25.61,0,0,0-.27-4.1,20.6,20.6,0,0,0-.91-3.45Q280.88,15,276,15c-.36,0-.65.31-.87.92a5.77,5.77,0,0,0-.32,1.89q0,7.21.22,13t.1,13.05l.22.21A4.63,4.63,0,0,0,279.05,42.11Z"/><path class="cls-1" d="M310,82.66l-.11-4c-.07-1.15-.11-2.44-.11-3.88a13.4,13.4,0,0,1,.11-1.83L310,71a10,10,0,0,0-.43-2.59q0-7.23-1.08-26.86-1.08-19-1.19-25.77a76.64,76.64,0,0,1-8.95-.33c-1.44-.36-2.15-.93-2.15-1.72a2,2,0,0,1,2-1.19c2.16,0,5.29.15,9.39.43,3.74.36,6.86.54,9.38.54h2.27l2.26-.11c1.29,0,1.94.47,1.94,1.41a1.13,1.13,0,0,1-.7,1,3.49,3.49,0,0,1-1.67.38c-1.44,0-2.95-.07-4.53-.22l-4.64-.21c-.29,0-.43.11-.43.32a10.42,10.42,0,0,0-.11,2.05q0,10.45,1.3,31.71,1.19,22,1.18,31.6a1.77,1.77,0,0,1-.91,1.4,3.15,3.15,0,0,1-1.78.65Z"/></svg>